<svg version="1.1" xmlns="http://www.w3.org/2000/svg" xmlns:xlink="http://www.w3.org/1999/xlink" width="512.000000pt" height="512.000000pt" viewBox="0,0,256,256"><g fill="#ffffff" fill-rule="nonzero" stroke="none" stroke-width="1" stroke-linecap="butt" stroke-linejoin="miter" stroke-miterlimit="10" stroke-dasharray="" stroke-dashoffset="0" font-family="none" font-weight="none" font-size="none" text-anchor="none" style="mix-blend-mode: normal"><g transform="translate(-0.09097,-0.07079) scale(0.5,0.5)"><g transform="translate(0,512) scale(0.1,-0.1)"><path d="M1710,4470c-592,-43 -952,-361 -1047,-925c-17,-101 -18,-181 -18,-985c0,-983 0,-985 74,-1205c120,-363 392,-596 791,-679c148,-31 378,-38 1171,-33c838,4 844,5 1044,62c320,92 566,324 671,633c80,237 87,345 81,1334c-4,848 -4,852 -62,1053c-99,344 -346,590 -692,690c-199,58 -198,58 -1088,60c-451,2 -867,-1 -925,-5zM3473,4106c199,-32 321,-89 433,-200c80,-81 121,-148 159,-259c57,-172 59,-207 59,-1087c0,-880 -2,-915 -59,-1087c-38,-111 -79,-178 -159,-259c-81,-80 -148,-121 -259,-159c-172,-57 -207,-59 -1087,-59c-880,0 -915,2 -1087,59c-111,38 -178,79 -259,159c-80,81 -121,148 -159,259c-57,172 -59,207 -59,1087c0,880 2,915 59,1087c82,243 256,390 530,448c128,27 345,33 1090,30c579,-2 717,-6 798,-19z"></path><path d="M3485,3796c-60,-28 -87,-56 -114,-116c-37,-82 -19,-192 42,-259c35,-38 115,-71 172,-71c57,0 137,33 172,71c35,39 63,110 63,164c0,57 -33,137 -71,172c-69,63 -178,80 -264,39z"></path><path d="M2400,3539c-92,-14 -245,-68 -332,-118c-307,-176 -498,-506 -498,-861c0,-573 474,-1019 1050,-987c430,24 786,317 902,744c31,113 31,374 0,485c-100,364 -361,625 -720,719c-90,24 -301,33 -402,18zM2760,3160c184,-62 341,-219 401,-401c21,-64 24,-92 24,-209c-1,-128 -2,-139 -33,-215c-76,-190 -243,-339 -438,-390c-77,-20 -226,-20 -306,0c-227,59 -404,237 -463,465c-25,98 -17,261 18,359c116,325 473,500 797,391z"></path></g></g></g></svg>